<svg xmlns="http://www.w3.org/2000/svg" viewBox="0 0 290.61 418.78">
    <defs>
        <style>
            .cls-1{fill:#314b8c;}.cls-2{fill:#3e3238;}.cls-3{fill:#d12a33;}.cls-4{fill:#7c5a4c;}.cls-5{fill:#fff;}.cls-6{fill:#31252c;}
        </style>
    </defs>
    <title>chief-clip-path</title>
    <g id="Слой_2">
        <g id="Layer_1">
            <path class="cls-1"
                  d="M41.16,335.14s2.14,30.8,1.9,46-1.23,22.34-9.58,26c26,2.45,247.76,3.19,247.76,3.19a43.82,43.82,0,0,1-16.45-14c-6.87-9.82-4.91-55.74-4.91-55.74Z"
                  clip-path="url(#chief-clip-path)"/>
            <path class="cls-2"
                  d="M164.37,406.21A493.44,493.44,0,0,0,87.51,402c-43,1-63.84,3.44-62.13,8.35s72.15,9.33,125.7,3.93c36.36,7.41,59.45,3.19,80.07,3.93s60.65-2.46,59.42-7.86S224.77,399.58,164.37,406.21Z" clip-path="url(#chief-clip-path)"/>
            <path d="M157.37,406a.74.74,0,0,1-.74-.74V355.52a.74.74,0,1,1,1.47,0V405.3A.74.74,0,0,1,157.37,406Z"
                  clip-path="url(#chief-clip-path)"/>
            <path class="cls-3"
                  d="M83.12,131.84s-43.41,21.7-76.69,73.07c16.28,21.34,22.07,62.58,22.07,62.58s-6.87,35.09,12.66,67.65c55,13,99.12,25.68,152.65,18.09s66.2-13,66.2-13,27.85-23.15,8-81.39c9.77-33.64,10.85-53.54,10.85-53.54s.36-35.09-67.28-73.43C164.88,130.4,83.12,131.84,83.12,131.84Z"
                  clip-path="url(#chief-clip-path)"/>
            <path d="M122.55,216.14a.74.74,0,0,1-.46-1.32c.71-.56,17.71-13.5,54.18-3.75a.74.74,0,1,1-.38,1.42c-35.77-9.56-52.72,3.35-52.89,3.48A.73.73,0,0,1,122.55,216.14Z"
                  clip-path="url(#chief-clip-path)"/>
            <path d="M202.86,254.12a.74.74,0,0,1-.4-.12c-.25-.17-25.59-16.49-63.59-14.71S80.47,253.88,80.27,254a.74.74,0,0,1-.8-1.24c.2-.13,20.87-13.15,59.33-14.95s64.21,14.78,64.47,15a.74.74,0,0,1-.41,1.35Z"
                  clip-path="url(#chief-clip-path)"/>
            <path class="cls-4"
                  d="M6.44,204.91S-5.86,219,3.54,243.36s17.37,25.21,24.78,23,16.64-7,25.32-16.73S65,237.65,73,236s18.81-5.43,22.07-13.56,3.07-8.14,9.4-9.77,15-11.94,12.84-15.37-7.05,2.35-11,3.26-11.94,2.53-11.21-.18-3.8-13.75-9.41-20.08-11.76-11.57-14.83-9.59S69.38,181.94,71,187s3.07,10.49,1.63,10.49S62,189.36,52.2,188.64s-18.09.72-13.39,5.61,15,9.77,12.66,11.94-17,1.45-18.09,9.22C27.6,214.5,6.44,204.91,6.44,204.91Z"
                  clip-path="url(#chief-clip-path)"/>
            <path d="M50,230.25a.74.74,0,0,1-.74-.74c0-1.7-.56-6.26-3.06-6.88a24,24,0,0,0-3.18-.4c-3.37-.3-7.56-.67-9.47-3.05a4.91,4.91,0,0,1-.93-3.87.74.74,0,1,1,1.46.2,3.45,3.45,0,0,0,.62,2.75c1.52,1.9,5.36,2.23,8.44,2.5a24.32,24.32,0,0,1,3.41.44c4.13,1,4.18,8,4.18,8.31a.74.74,0,0,1-.74.74Z"
                  clip-path="url(#chief-clip-path)"/>
            <path class="cls-4"
                  d="M278.79,204.53a36.7,36.7,0,0,1-15.34,6.53c-9.59,1.81-18.63,5.43-19.71,2.53s3.8-6.37,7.23-9.07,7.05-9.74,5.25-11.91-10.31,1.27-15.74,3.62-9.59,6.15-10.67,4.52,1.27-7.6,3.8-10.67,4.7-12.66,2.35-14.11-7.78,4.34-10.85,6.51-8.86,9.77-11.4,8.5-3.44-21.66-7.42-20.69-5.42,8.39-6.33,13.45-1.08,12.84-3.8,12.66-14.83-9-18.63-6.87.18,11.94,5.43,16.28,19.17,16.28,22.43,21.7S214.62,231,219,235.3s18.09,18.27,23.69,22.61,12.45,8.71,19.35,6.22a35.64,35.64,0,0,0,22.43-28.47C286.78,218.3,283.63,207.4,278.79,204.53Z"
                  clip-path="url(#chief-clip-path)"/>
            <path d="M241.8,223.38a.74.74,0,0,1-.73-.68c0-.31-.56-7.73,2.08-11.32a.74.74,0,0,1,1.19.87c-2.32,3.15-1.8,10.26-1.8,10.33a.74.74,0,0,1-.68.79Z"
                  clip-path="url(#chief-clip-path)"/>
            <path class="cls-5"
                  d="M82.84,98.78V46.47S70.56,47.95,68.35,36.41s5.4-23.57,5.4-23.57,20.87-12.28,31.18,0c9.33-11,28.73-8.35,37.57-2.95,9.58-8.35,36.1-14.73,51.81-2,16-6.14,33.15,5.16,34.62,13.26S221.58,43.53,212,38.13c0,12.52-.25,60.65-.25,60.65s-30.2-11.3-63.23-12S82.84,98.78,82.84,98.78Z"/>
            <path d="M82.1,99.86V47.26c-2.89.08-12.5-.43-14.47-10.71-2.24-11.69,5.19-23.6,5.5-24.11l.1-.15.15-.09c.86-.51,20.81-12,31.56-.48C114.82,1,133.86,4,142.44,9c9.68-8,36-14.53,52-1.9,7.89-2.89,17-2,24.94,2.5,5.63,3.16,9.57,7.55,10.28,11.46,1,5.59-2.42,13.36-7.5,17a9.43,9.43,0,0,1-9.44,1.28c0,14-.24,59-.25,59.47v1.06l-1-.37c-.3-.11-30.47-11.26-63-12s-65.08,11.85-65.4,12ZM145.79,86c.92,0,1.84,0,2.76,0,29.45.66,57,9.8,62.48,11.72,0-7.09.24-48.25.24-59.61V36.86l1.1.62a8,8,0,0,0,9-.65c4.59-3.26,7.81-10.51,6.9-15.52-.62-3.44-4.37-7.54-9.55-10.44-3.66-2.06-13.33-6.4-24.08-2.26l-.4.15-.33-.27C178.24-4.19,152.05,2.55,143,10.44l-.41.35-.46-.28c-8.11-5-27.29-8.26-36.62,2.79l-.56.67-.56-.67c-9.34-11.12-28.18-1-30.09.07-.85,1.42-7.21,12.46-5.21,22.89C71.13,47,82.28,45.8,82.75,45.74l.82-.1V97.71C89.17,95.67,117.15,86,145.79,86Z"
                  clip-path="url(#chief-clip-path)"/>
            <path d="M110.83,76.43a.74.74,0,0,1-.74-.74V52.37a.74.74,0,1,1,1.47,0V75.7A.74.74,0,0,1,110.83,76.43Z"
                  clip-path="url(#chief-clip-path)"/>
            <path d="M151.08,72.26H151a.74.74,0,0,1-.62-.84l2.23-14.49a.74.74,0,0,1,1.46.22l-2.23,14.49A.74.74,0,0,1,151.08,72.26Z"
                  clip-path="url(#chief-clip-path)"/>
            <path d="M196.29,78.64a.74.74,0,0,1-.73-.7L194.32,52.4a.74.74,0,0,1,.7-.77.75.75,0,0,1,.77.7L197,77.87a.74.74,0,0,1-.7.77Z"
                  clip-path="url(#chief-clip-path)"/>
            <path d="M146.72,52.5c-9.67,0-14.57-5.8-16-11.4-4.22,4-14.38,9-24,9-3.22,0-5.67-.85-7.27-2.51A9.52,9.52,0,0,1,97.16,41a20.33,20.33,0,0,1-14.31,6.25h0a.74.74,0,0,1,0-1.47c4.56-.08,10.77-2,14.51-7.33l1.34-1.89v2.31c0,.19,0,.42,0,.69-.06,1.73-.18,4.94,1.82,7,1.32,1.37,3.41,2.06,6.21,2.06,9.89,0,20.72-5.62,23.83-9.49l1-1.29.27,1.63c1,5.85,5.62,12,15.82,11.56,10.78-.42,15.47-3.69,19.33-13.47l.5-1.26.79,1.1C175.13,47,184.63,51.84,195,50.9S206.25,42,205.68,34.37L205.43,31l1.63,3c.65,1.18,3.55,2.76,5.23,3.49a.74.74,0,0,1-.58,1.35,22.93,22.93,0,0,1-4.45-2.54c.23,6.93-1.29,15.12-12.13,16.1-10.52.95-20.17-3.68-27.29-13.05-4,9.39-9.24,12.75-20.14,13.17Z"
                  clip-path="url(#chief-clip-path)"/>
            <path class="cls-4"
                  d="M83.58,98.78s-3.13,62.06,31.31,68.14,66.48,8.29,79-3.31S211,98.5,211,98.5,144.9,56.23,83.58,98.78Z"
                  clip-path="url(#chief-clip-path)"/>
            <path class="cls-6"
                  d="M213.14,122.44a152.84,152.84,0,0,1-1.38-23.67L211,98.5a83.53,83.53,0,0,0-9.05,29.38c0,1.47-2.82,4.67-4.42,9.95a51.92,51.92,0,0,0-1.72,11.91,25,25,0,0,0-5.4,8.72c-1.6,4.91-9.45,7.49-9.45,7.49a33.12,33.12,0,0,1,.74-3.68c.49-1.84-2.33-4.18-2.7-4.54s-1.1-5.77-2.33-8.47-3.81-7-5.65-7-11.05-.49-17.19-1a70,70,0,0,0-24.56,1.44C117,145.37,111.39,157,111.39,157s-4.6-2.49-8-4.79-4.7-7.28-6.91-9.58-5-8.75-6.17-13-3-7.74-3.41-15.1a155.29,155.29,0,0,0-2.05-16.61,11.66,11.66,0,0,1-2,.87c-1.2,12.8-2,17.68-.83,27.9s5,27.72,7.37,32.41,5.71,11.33,23.2,17.4,31.86,7.09,53.22,4.79,38.12-12.06,42.91-20.17S214.89,134.41,213.14,122.44Zm-57.61,44.72c-3.81-4.67-5.65-8-6.38-8.1a8.27,8.27,0,0,0-5.65,2.95c-1.72,2.21-3.19,5.24-4.3,5.32s-9.58-2.13-11.54-3.36-6.26-1.35-7.49-1.23-3.19-2.82-4.91-4.3c0,0,6.26-9.33,13.51-11.3s13-1.35,19.77-1.47,13.75-1.47,18.17,2.7,6.63,9.33,6.88,12.28a26.23,26.23,0,0,1,0,4.91l1.6,1.6S162.77,167.53,155.52,167.16Z"
                  clip-path="url(#chief-clip-path)"/>
            <path d="M145.51,155.58a44.11,44.11,0,0,1-9.62-.94.74.74,0,0,1,.35-1.43,51.77,51.77,0,0,0,26.83-2.12.74.74,0,0,1,.5,1.39A53.6,53.6,0,0,1,145.51,155.58Z"
                  clip-path="url(#chief-clip-path)"/>
            <path d="M151.62,138.38c-.73,0-1.54,0-2.42,0s-1.92,0-2.75,0c-3,.06-3.89-1-4.51-2.06l-.15-.25a6.7,6.7,0,0,0-1.3.58,18,18,0,0,1-1.7.81c-2.48,1-6-1.54-6.73-2.06-1.67-1.26.06-4.35.42-5a.74.74,0,0,1,1.26.76c-.69,1.16-1.19,2.73-.8,3,1.67,1.25,4,2.37,5.3,1.87a16.74,16.74,0,0,0,1.56-.75c1.16-.61,2.36-1.24,3.11-.24a4.82,4.82,0,0,1,.3.46c.4.68.82,1.37,3.22,1.33.84,0,1.81,0,2.81,0,2,0,5.67.13,6.13-.44.78-1.5,2.24-1.46,3.66-1.44l1.64,0c3.79.08,5.92-.1,6.31-.53a11,11,0,0,0,1.93-3.28c-.68-.58-2.33-1.8-2.34-1.82a.74.74,0,1,1,.88-1.18c.08.06,1.94,1.44,2.57,2,.84.76.21,2.5-1.88,5.17-.81,1-3.26,1.18-7.5,1.1l-1.65,0c-1.45,0-2,0-2.33.66C156.13,138.15,154.39,138.38,151.62,138.38Z"
                  clip-path="url(#chief-clip-path)"/>
            <path class="cls-5"
                  d="M143.74,89.81c4.78,2.93,9.33,13.75,2.82,23.45s-15.71,16.94-26.64,9.82-1.47-23.94,2.09-27.5S135.51,84.78,143.74,89.81Z"
                  clip-path="url(#chief-clip-path)"/>
            <path class="cls-5"
                  d="M156.14,91.53c4-3.25,13.87-4.67,22.59,4.54s10.68,22.47,3.44,28.24-18.29,3.07-25-4.66S147.42,98.66,156.14,91.53Z"
                  clip-path="url(#chief-clip-path)"/>
            <circle cx="135.02" cy="105.77" r="2.46" clip-path="url(#chief-clip-path)"/>
            <circle cx="162.79" cy="105.77" r="2.46" clip-path="url(#chief-clip-path)"/>
        </g>
    </g>

    <defs>
        <clipPath id="chief-clip-path">
            <rect width="290" height="420" fill="white"/>
        </clipPath>
    </defs>
</svg>